<svg version="1.1" id="Layer_1" xmlns="http://www.w3.org/2000/svg" xmlns:xlink="http://www.w3.org/1999/xlink" x="0px" y="0px"
	 width="100%" viewBox="0 0 1681 239" enable-background="new 0 0 1681 239" xml:space="preserve">
<path fill="#FFFFFF" opacity="1.000000" stroke="none" 
	d="
M310.000000,1.000000 
	C767.275085,1.000000 1224.550171,1.000000 1681.912598,1.000000 
	C1681.912598,80.598183 1681.912598,160.196487 1681.912598,239.897400 
	C1121.666626,239.897400 561.333313,239.897400 1.000000,239.897400 
	C1.000000,236.586792 1.000000,233.254196 1.468657,229.460800 
	C39.532692,229.000000 77.128067,229.000000 114.743149,229.000000 
	C114.743149,209.081970 114.743149,189.679672 114.743149,169.702896 
	C108.346123,169.702896 102.190460,169.702896 95.661751,169.702896 
	C106.906914,150.986908 117.785019,132.881851 129.160416,113.949112 
	C133.661591,121.380173 137.689209,128.029449 142.027954,135.192383 
	C137.383575,135.192383 133.306686,135.192383 129.271988,135.192383 
	C129.271988,154.614548 129.271988,173.683899 129.271988,192.733795 
	C170.943069,192.733795 212.341583,192.733795 253.738083,192.733795 
	C253.738083,173.393372 253.738083,154.320297 253.738083,135.093140 
	C249.840149,135.093140 246.201279,135.093140 241.787003,135.093140 
	C245.914474,128.089005 249.776886,121.534630 254.322250,113.821327 
	C265.761505,132.843628 276.804413,151.206818 288.222504,170.193954 
	C280.923218,170.193954 274.639404,170.193954 268.213684,170.193954 
	C268.213684,189.830353 268.213684,209.232315 268.213684,228.791214 
	C306.159760,228.791214 343.891998,228.791214 381.791595,228.791214 
	C381.791595,209.180237 381.791595,189.778305 381.791595,170.055573 
	C373.820526,170.055573 366.051147,170.055573 358.740112,170.055573 
	C336.663788,133.277664 314.849182,96.935715 292.647522,59.948982 
	C298.742920,59.948982 304.276764,59.948982 310.000000,59.948982 
	C310.000000,39.947998 310.000000,20.473999 310.000000,1.000000 
M1571.500000,184.000000 
	C1581.657471,184.000000 1591.841919,184.458466 1601.963989,183.859024 
	C1610.493164,183.353928 1618.186035,180.268784 1625.190430,174.760101 
	C1633.708374,168.060989 1637.656128,159.339874 1639.343628,149.198624 
	C1641.393433,136.880371 1639.578003,125.220909 1630.413208,116.204758 
	C1625.697998,111.566032 1619.451660,108.483597 1614.526001,105.126396 
	C1616.559082,103.800278 1620.184448,102.316582 1622.596191,99.710083 
	C1633.189819,88.260986 1632.308838,68.131523 1623.320801,56.920963 
	C1615.348145,46.976871 1604.439453,42.972435 1591.878052,42.993286 
	C1575.392944,43.020649 1558.907959,42.993965 1542.422852,43.010677 
	C1540.995483,43.012127 1539.568359,43.163799 1538.297241,43.236729 
	C1538.297241,90.361153 1538.297241,137.066772 1538.297241,184.000000 
	C1549.228882,184.000000 1559.864380,184.000000 1571.500000,184.000000 
M611.000000,175.454453 
	C611.000000,163.368027 611.000000,151.281601 611.000000,139.308594 
	C633.678772,139.308594 655.737976,139.308594 678.209839,139.308594 
	C678.209839,154.346924 678.209839,169.080353 678.209839,183.677338 
	C686.031494,183.677338 693.432678,183.677338 700.694824,183.677338 
	C700.694824,136.639923 700.694824,89.925728 700.694824,43.314774 
	C692.984680,43.314774 685.583801,43.314774 677.784912,43.314774 
	C677.784912,68.687393 677.784912,93.747353 677.784912,118.688332 
	C655.315063,118.688332 633.255737,118.688332 610.791138,118.688332 
	C610.791138,93.318878 610.791138,68.258949 610.791138,43.318645 
	C602.977234,43.318645 595.576416,43.318645 588.301147,43.318645 
	C588.301147,90.351990 588.301147,137.066147 588.301147,183.689087 
	C596.006592,183.689087 603.406982,183.689087 611.000000,183.689087 
	C611.000000,181.065552 611.000000,178.751465 611.000000,175.454453 
M825.000000,50.551369 
	C825.000000,48.117321 825.000000,45.683277 825.000000,43.275230 
	C794.381042,43.275230 764.326294,43.275230 734.257080,43.275230 
	C734.257080,90.264343 734.257080,136.977753 734.257080,183.750107 
	C765.568909,183.750107 796.623047,183.750107 827.739990,183.750107 
	C827.739990,177.098145 827.739990,170.699188 827.739990,163.893570 
	C804.089355,163.893570 780.695312,163.893570 757.266846,163.893570 
	C757.266846,154.749496 757.266846,146.017715 757.266846,136.877533 
	C777.259644,136.877533 796.988831,136.877533 816.722290,136.877533 
	C816.722290,130.062195 816.722290,123.662880 816.722290,116.855637 
	C796.718262,116.855637 776.989075,116.855637 757.280762,116.855637 
	C757.280762,98.714127 757.280762,80.986671 757.280762,62.851555 
	C779.953003,62.851555 802.347717,62.851555 825.000000,62.851555 
	C825.000000,58.806602 825.000000,55.167320 825.000000,50.551369 
M1484.000000,78.500000 
	C1484.000000,97.833206 1484.189941,117.169182 1483.907837,136.498276 
	C1483.792847,144.384811 1481.567505,151.713837 1475.830444,157.783691 
	C1470.072754,163.875504 1462.472778,165.123627 1455.008057,165.799332 
	C1447.415161,166.486649 1439.765625,165.097717 1433.165039,160.644745 
	C1424.840820,155.028885 1422.085327,146.571716 1422.045532,137.117798 
	C1421.921387,107.618393 1422.000000,78.118141 1422.000000,48.618210 
	C1422.000000,46.843803 1422.000000,45.069397 1422.000000,43.274593 
	C1414.074585,43.274593 1406.672485,43.274593 1399.000000,43.274593 
	C1399.000000,45.186050 1399.000000,46.825478 1399.000000,48.464909 
	C1399.000000,77.131508 1398.954590,105.798248 1399.044800,134.464569 
	C1399.059692,139.210571 1399.082642,144.085342 1400.108276,148.675705 
	C1403.440308,163.587051 1411.571289,174.731583 1425.992920,181.108292 
	C1439.785034,187.206573 1454.075806,187.304901 1468.333740,184.809677 
	C1480.712036,182.643417 1490.805542,176.025208 1498.241577,165.452652 
	C1504.720337,156.240829 1506.734009,145.784134 1506.871948,135.081192 
	C1507.245605,106.086075 1507.000000,77.082985 1507.000000,48.083054 
	C1507.000000,46.478928 1507.000000,44.874802 1507.000000,43.287025 
	C1499.049072,43.287025 1491.645630,43.287025 1484.000000,43.287025 
	C1484.000000,54.881771 1484.000000,66.190887 1484.000000,78.500000 
M1193.636841,163.003235 
	C1187.845459,159.588882 1181.078125,157.162155 1176.440918,152.579834 
	C1160.917969,137.240402 1157.033691,118.419357 1162.846802,97.595345 
	C1168.621826,76.908104 1182.997192,65.193497 1203.619995,62.252399 
	C1221.087891,59.761215 1236.259888,65.856606 1247.395752,80.073616 
	C1249.126709,82.283623 1249.809448,82.413132 1251.838623,80.760498 
	C1255.478760,77.795670 1259.115967,74.642418 1263.242798,72.515602 
	C1266.837036,70.663216 1266.362549,68.580345 1264.681396,66.351768 
	C1258.517944,58.181831 1250.905762,51.354340 1241.545410,47.383091 
	C1225.917603,40.752827 1209.529663,39.130360 1192.827759,43.012901 
	C1171.056641,48.073849 1154.374023,60.194805 1144.485474,80.282974 
	C1136.745605,96.006149 1135.010742,112.757126 1138.883667,130.162842 
	C1144.628662,155.982254 1160.066406,172.912186 1184.512329,182.142853 
	C1197.464844,187.033707 1210.774536,186.898621 1224.189087,184.985397 
	C1242.075806,182.434357 1255.786133,173.087601 1266.690674,158.977142 
	C1268.843994,156.190643 1267.761841,154.781662 1265.723145,153.339539 
	C1261.904785,150.638458 1257.815430,148.305267 1254.110718,145.464371 
	C1251.739014,143.645523 1250.815918,143.613617 1248.808960,146.266724 
	C1236.209961,162.922714 1214.875732,170.287582 1193.636841,163.003235 
M980.503479,100.002190 
	C979.658813,97.917427 978.864502,95.810570 977.961548,93.751381 
	C970.657837,77.095856 963.348999,60.442524 955.979492,43.816124 
	C955.513855,42.765636 954.525879,41.946697 953.780884,41.020081 
	C952.774597,41.900589 951.341858,42.584698 950.831238,43.693466 
	C947.533997,50.853424 944.349426,58.068798 941.291809,65.334953 
	C928.816772,94.979973 916.420776,124.658218 903.951782,154.305756 
	C899.809265,164.155472 895.535095,173.949783 891.273987,183.879150 
	C899.031921,183.879150 906.354309,183.879150 913.862427,183.879150 
	C915.927124,178.588547 917.844727,173.281754 920.115417,168.130646 
	C920.688049,166.831619 922.382019,165.144241 923.574890,165.132965 
	C943.239441,164.947006 962.906494,164.957718 982.571594,165.110550 
	C983.722412,165.119476 985.376343,166.469330 985.913635,167.610657 
	C987.965271,171.968384 989.562500,176.538116 991.541992,180.932938 
	C992.078003,182.123077 993.333069,183.816391 994.307373,183.849976 
	C1001.501160,184.097900 1008.707397,183.984116 1016.832520,183.984116 
	C1004.591309,155.548538 992.774414,128.098679 980.503479,100.002190 
M525.000000,136.500000 
	C525.000000,112.083824 525.000000,87.667641 525.000000,62.839016 
	C538.963867,62.839016 552.364929,62.839016 565.701050,62.839016 
	C565.701050,56.017769 565.701050,49.616711 565.701050,43.288250 
	C530.349304,43.288250 495.297272,43.288250 460.298279,43.288250 
	C460.298279,49.980846 460.298279,56.381859 460.298279,63.189407 
	C474.326172,63.189407 488.060150,63.189407 502.179871,63.189407 
	C502.179871,103.655586 502.179871,143.706467 502.179871,183.701935 
	C509.981049,183.701935 517.381165,183.701935 525.000000,183.701935 
	C525.000000,168.103317 525.000000,152.801651 525.000000,136.500000 
M1337.500000,164.000000 
	C1330.071289,164.000000 1322.642578,164.000000 1314.826050,164.000000 
	C1314.826050,123.352234 1314.826050,83.297600 1314.826050,43.298939 
	C1307.018555,43.298939 1299.617798,43.298939 1292.286377,43.298939 
	C1292.286377,90.315720 1292.286377,137.033005 1292.286377,183.715973 
	C1321.631348,183.715973 1350.688965,183.715973 1379.705078,183.715973 
	C1379.705078,177.027328 1379.705078,170.626007 1379.705078,164.000000 
	C1365.774292,164.000000 1352.137085,164.000000 1337.500000,164.000000 
M1062.000000,133.500000 
	C1062.000000,103.416557 1062.000000,73.333107 1062.000000,43.295959 
	C1054.025146,43.295959 1046.624146,43.295959 1039.285156,43.295959 
	C1039.285156,90.310974 1039.285156,137.029465 1039.285156,183.704132 
	C1046.974609,183.704132 1054.375610,183.704132 1062.000000,183.704132 
	C1062.000000,167.106216 1062.000000,150.803101 1062.000000,133.500000 
M406.861816,211.350937 
	C406.756927,210.943161 406.652069,210.535370 406.547180,210.127594 
	C406.703369,210.106567 406.929413,210.007751 407.005432,210.076004 
	C408.467163,211.388275 409.911316,212.720154 411.359070,214.047989 
	C411.821228,213.722656 412.283356,213.397308 412.745514,213.071960 
	C411.306641,211.012543 410.286987,208.359436 408.356476,206.996307 
	C399.924652,201.042603 388.404480,207.786285 389.865387,217.998596 
	C390.664612,223.585434 393.887695,227.843140 400.138977,228.982346 
	C404.543274,229.784958 411.500214,225.835083 412.701111,221.628586 
	C413.005157,220.563599 412.430298,219.247681 412.259308,218.047089 
	C411.495972,218.746674 410.773712,219.499313 409.957611,220.130692 
	C409.166077,220.743088 408.278168,221.230988 406.990021,222.057526 
	C406.990021,218.378738 406.990021,215.246658 406.861816,211.350937 
z"/>
<path fill="#000000" opacity="1.000000" stroke="none" 
	d="
M309.531342,1.000000 
	C310.000000,20.473999 310.000000,39.947998 310.000000,59.948982 
	C304.276764,59.948982 298.742920,59.948982 292.647522,59.948982 
	C314.849182,96.935715 336.663788,133.277664 358.740112,170.055573 
	C366.051147,170.055573 373.820526,170.055573 381.791595,170.055573 
	C381.791595,189.778305 381.791595,209.180237 381.791595,228.791214 
	C343.891998,228.791214 306.159760,228.791214 268.213684,228.791214 
	C268.213684,209.232315 268.213684,189.830353 268.213684,170.193954 
	C274.639404,170.193954 280.923218,170.193954 288.222504,170.193954 
	C276.804413,151.206818 265.761505,132.843628 254.322250,113.821327 
	C249.776886,121.534630 245.914474,128.089005 241.787003,135.093140 
	C246.201279,135.093140 249.840149,135.093140 253.738083,135.093140 
	C253.738083,154.320297 253.738083,173.393372 253.738083,192.733795 
	C212.341583,192.733795 170.943069,192.733795 129.271988,192.733795 
	C129.271988,173.683899 129.271988,154.614548 129.271988,135.192383 
	C133.306686,135.192383 137.383575,135.192383 142.027954,135.192383 
	C137.689209,128.029449 133.661591,121.380173 129.160416,113.949112 
	C117.785019,132.881851 106.906914,150.986908 95.661751,169.702896 
	C102.190460,169.702896 108.346123,169.702896 114.743149,169.702896 
	C114.743149,189.679672 114.743149,209.081970 114.743149,229.000000 
	C77.128067,229.000000 39.532692,229.000000 1.468657,229.000000 
	C1.000000,209.645767 1.000000,190.291550 1.468640,170.468658 
	C8.437136,170.000000 14.950049,170.226639 21.428408,169.853424 
	C23.228970,169.749680 25.608562,168.288956 26.566454,166.737167 
	C35.770760,151.826218 44.720699,136.758362 53.756634,121.743340 
	C66.080566,101.264633 78.415993,80.792839 91.068451,59.783474 
	C84.699760,59.783474 78.954124,59.783474 73.000000,59.783474 
	C73.000000,39.953976 73.000000,20.476988 73.000000,1.000000 
	C110.020897,1.000000 147.041794,1.000000 184.531342,1.468657 
	C185.000000,21.204975 185.000000,40.472637 185.000000,60.078823 
	C179.063248,60.078823 173.645584,60.078823 167.393005,60.078823 
	C175.668121,73.736786 183.564407,86.769478 191.826279,100.405571 
	C200.052567,86.706436 207.964737,73.530380 216.230896,59.764851 
	C209.709427,59.764851 203.957321,59.764851 198.000000,59.764851 
	C198.000000,39.950928 198.000000,20.475464 198.000000,1.000000 
	C235.020889,1.000000 272.041779,1.000000 309.531342,1.000000 
z"/>
<path fill="#FFFFFF" opacity="1.000000" stroke="none" 
	d="
M72.531342,1.000000 
	C73.000000,20.476988 73.000000,39.953976 73.000000,59.783474 
	C78.954124,59.783474 84.699760,59.783474 91.068451,59.783474 
	C78.415993,80.792839 66.080566,101.264633 53.756634,121.743340 
	C44.720699,136.758362 35.770760,151.826218 26.566454,166.737167 
	C25.608562,168.288956 23.228970,169.749680 21.428408,169.853424 
	C14.950049,170.226639 8.437136,170.000000 1.468640,170.000000 
	C1.000000,113.769089 1.000000,57.538174 1.000000,1.000000 
	C24.686676,1.000000 48.374680,1.000000 72.531342,1.000000 
z"/>
<path fill="#FFFFFF" opacity="1.000000" stroke="none" 
	d="
M197.536819,1.000000 
	C198.000000,20.475464 198.000000,39.950928 198.000000,59.764851 
	C203.957321,59.764851 209.709427,59.764851 216.230896,59.764851 
	C207.964737,73.530380 200.052567,86.706436 191.826279,100.405571 
	C183.564407,86.769478 175.668121,73.736786 167.393005,60.078823 
	C173.645584,60.078823 179.063248,60.078823 185.000000,60.078823 
	C185.000000,40.472637 185.000000,21.204975 185.000000,1.468657 
	C189.024551,1.000000 193.049088,1.000000 197.536819,1.000000 
z"/>
<path fill="#231F20" opacity="1.000000" stroke="none" 
	d="
M1571.000000,184.000000 
	C1559.864380,184.000000 1549.228882,184.000000 1538.297241,184.000000 
	C1538.297241,137.066772 1538.297241,90.361153 1538.297241,43.236729 
	C1539.568359,43.163799 1540.995483,43.012127 1542.422852,43.010677 
	C1558.907959,42.993965 1575.392944,43.020649 1591.878052,42.993286 
	C1604.439453,42.972435 1615.348145,46.976871 1623.320801,56.920963 
	C1632.308838,68.131523 1633.189819,88.260986 1622.596191,99.710083 
	C1620.184448,102.316582 1616.559082,103.800278 1614.526001,105.126396 
	C1619.451660,108.483597 1625.697998,111.566032 1630.413208,116.204758 
	C1639.578003,125.220909 1641.393433,136.880371 1639.343628,149.198624 
	C1637.656128,159.339874 1633.708374,168.060989 1625.190430,174.760101 
	C1618.186035,180.268784 1610.493164,183.353928 1601.963989,183.859024 
	C1591.841919,184.458466 1581.657471,184.000000 1571.000000,184.000000 
M1564.658936,163.999985 
	C1574.973511,163.999985 1585.288208,164.016159 1595.602783,163.995117 
	C1604.554932,163.976837 1613.293091,157.631058 1615.874268,149.321793 
	C1619.003784,139.247238 1615.712280,126.621025 1608.062256,122.154121 
	C1604.175171,119.884476 1599.511963,117.995743 1595.100952,117.757133 
	C1583.789429,117.145218 1572.422485,117.552818 1561.000122,117.552818 
	C1561.000122,132.047424 1561.016357,146.353363 1560.981201,160.659149 
	C1560.976318,162.609833 1560.829712,164.467300 1564.658936,163.999985 
M1604.069702,91.394852 
	C1604.832031,89.982262 1605.735962,88.626900 1606.333618,87.147797 
	C1610.335327,77.244667 1605.792725,66.205750 1596.410645,64.531624 
	C1584.899292,62.477577 1572.918213,63.055599 1561.357910,62.506104 
	C1561.357910,75.115082 1561.357910,86.509865 1561.357910,97.999908 
	C1570.698730,97.999908 1579.690918,98.242332 1588.661865,97.910423 
	C1594.183960,97.706116 1599.686157,96.655350 1604.069702,91.394852 
z"/>
<path fill="#231F20" opacity="1.000000" stroke="none" 
	d="
M611.000000,175.945923 
	C611.000000,178.751465 611.000000,181.065552 611.000000,183.689087 
	C603.406982,183.689087 596.006592,183.689087 588.301147,183.689087 
	C588.301147,137.066147 588.301147,90.351990 588.301147,43.318645 
	C595.576416,43.318645 602.977234,43.318645 610.791138,43.318645 
	C610.791138,68.258949 610.791138,93.318878 610.791138,118.688332 
	C633.255737,118.688332 655.315063,118.688332 677.784912,118.688332 
	C677.784912,93.747353 677.784912,68.687393 677.784912,43.314774 
	C685.583801,43.314774 692.984680,43.314774 700.694824,43.314774 
	C700.694824,89.925728 700.694824,136.639923 700.694824,183.677338 
	C693.432678,183.677338 686.031494,183.677338 678.209839,183.677338 
	C678.209839,169.080353 678.209839,154.346924 678.209839,139.308594 
	C655.737976,139.308594 633.678772,139.308594 611.000000,139.308594 
	C611.000000,151.281601 611.000000,163.368027 611.000000,175.945923 
z"/>
<path fill="#231F20" opacity="1.000000" stroke="none" 
	d="
M825.000000,51.039703 
	C825.000000,55.167320 825.000000,58.806602 825.000000,62.851555 
	C802.347717,62.851555 779.953003,62.851555 757.280762,62.851555 
	C757.280762,80.986671 757.280762,98.714127 757.280762,116.855637 
	C776.989075,116.855637 796.718262,116.855637 816.722290,116.855637 
	C816.722290,123.662880 816.722290,130.062195 816.722290,136.877533 
	C796.988831,136.877533 777.259644,136.877533 757.266846,136.877533 
	C757.266846,146.017715 757.266846,154.749496 757.266846,163.893570 
	C780.695312,163.893570 804.089355,163.893570 827.739990,163.893570 
	C827.739990,170.699188 827.739990,177.098145 827.739990,183.750107 
	C796.623047,183.750107 765.568909,183.750107 734.257080,183.750107 
	C734.257080,136.977753 734.257080,90.264343 734.257080,43.275230 
	C764.326294,43.275230 794.381042,43.275230 825.000000,43.275230 
	C825.000000,45.683277 825.000000,48.117321 825.000000,51.039703 
z"/>
<path fill="#231F20" opacity="1.000000" stroke="none" 
	d="
M1484.000000,78.000000 
	C1484.000000,66.190887 1484.000000,54.881771 1484.000000,43.287025 
	C1491.645630,43.287025 1499.049072,43.287025 1507.000000,43.287025 
	C1507.000000,44.874802 1507.000000,46.478928 1507.000000,48.083054 
	C1507.000000,77.082985 1507.245605,106.086075 1506.871948,135.081192 
	C1506.734009,145.784134 1504.720337,156.240829 1498.241577,165.452652 
	C1490.805542,176.025208 1480.712036,182.643417 1468.333740,184.809677 
	C1454.075806,187.304901 1439.785034,187.206573 1425.992920,181.108292 
	C1411.571289,174.731583 1403.440308,163.587051 1400.108276,148.675705 
	C1399.082642,144.085342 1399.059692,139.210571 1399.044800,134.464569 
	C1398.954590,105.798248 1399.000000,77.131508 1399.000000,48.464909 
	C1399.000000,46.825478 1399.000000,45.186050 1399.000000,43.274593 
	C1406.672485,43.274593 1414.074585,43.274593 1422.000000,43.274593 
	C1422.000000,45.069397 1422.000000,46.843803 1422.000000,48.618210 
	C1422.000000,78.118141 1421.921387,107.618393 1422.045532,137.117798 
	C1422.085327,146.571716 1424.840820,155.028885 1433.165039,160.644745 
	C1439.765625,165.097717 1447.415161,166.486649 1455.008057,165.799332 
	C1462.472778,165.123627 1470.072754,163.875504 1475.830444,157.783691 
	C1481.567505,151.713837 1483.792847,144.384811 1483.907837,136.498276 
	C1484.189941,117.169182 1484.000000,97.833206 1484.000000,78.000000 
z"/>
<path fill="#231F20" opacity="1.000000" stroke="none" 
	d="
M1194.050659,163.033417 
	C1214.875732,170.287582 1236.209961,162.922714 1248.808960,146.266724 
	C1250.815918,143.613617 1251.739014,143.645523 1254.110718,145.464371 
	C1257.815430,148.305267 1261.904785,150.638458 1265.723145,153.339539 
	C1267.761841,154.781662 1268.843994,156.190643 1266.690674,158.977142 
	C1255.786133,173.087601 1242.075806,182.434357 1224.189087,184.985397 
	C1210.774536,186.898621 1197.464844,187.033707 1184.512329,182.142853 
	C1160.066406,172.912186 1144.628662,155.982254 1138.883667,130.162842 
	C1135.010742,112.757126 1136.745605,96.006149 1144.485474,80.282974 
	C1154.374023,60.194805 1171.056641,48.073849 1192.827759,43.012901 
	C1209.529663,39.130360 1225.917603,40.752827 1241.545410,47.383091 
	C1250.905762,51.354340 1258.517944,58.181831 1264.681396,66.351768 
	C1266.362549,68.580345 1266.837036,70.663216 1263.242798,72.515602 
	C1259.115967,74.642418 1255.478760,77.795670 1251.838623,80.760498 
	C1249.809448,82.413132 1249.126709,82.283623 1247.395752,80.073616 
	C1236.259888,65.856606 1221.087891,59.761215 1203.619995,62.252399 
	C1182.997192,65.193497 1168.621826,76.908104 1162.846802,97.595345 
	C1157.033691,118.419357 1160.917969,137.240402 1176.440918,152.579834 
	C1181.078125,157.162155 1187.845459,159.588882 1194.050659,163.033417 
z"/>
<path fill="#231F20" opacity="1.000000" stroke="none" 
	d="
M980.730530,100.325508 
	C992.774414,128.098679 1004.591309,155.548538 1016.832520,183.984116 
	C1008.707397,183.984116 1001.501160,184.097900 994.307373,183.849976 
	C993.333069,183.816391 992.078003,182.123077 991.541992,180.932938 
	C989.562500,176.538116 987.965271,171.968384 985.913635,167.610657 
	C985.376343,166.469330 983.722412,165.119476 982.571594,165.110550 
	C962.906494,164.957718 943.239441,164.947006 923.574890,165.132965 
	C922.382019,165.144241 920.688049,166.831619 920.115417,168.130646 
	C917.844727,173.281754 915.927124,178.588547 913.862427,183.879150 
	C906.354309,183.879150 899.031921,183.879150 891.273987,183.879150 
	C895.535095,173.949783 899.809265,164.155472 903.951782,154.305756 
	C916.420776,124.658218 928.816772,94.979973 941.291809,65.334953 
	C944.349426,58.068798 947.533997,50.853424 950.831238,43.693466 
	C951.341858,42.584698 952.774597,41.900589 953.780884,41.020065 
	C954.525879,41.946697 955.513855,42.765636 955.979492,43.816124 
	C963.348999,60.442524 970.657837,77.095856 977.961548,93.751381 
	C978.864502,95.810570 979.658813,97.917427 980.730530,100.325508 
M932.999634,136.513168 
	C931.981934,139.178452 930.964233,141.843719 929.854492,144.750214 
	C945.438660,144.750214 960.629578,144.750214 976.366028,144.750214 
	C968.540283,124.844437 960.873535,105.343018 952.948853,85.185532 
	C952.019531,87.055580 951.438293,88.024887 951.036560,89.063637 
	C945.024536,104.608536 939.036255,120.162590 932.999634,136.513168 
z"/>
<path fill="#231F20" opacity="1.000000" stroke="none" 
	d="
M525.000000,137.000000 
	C525.000000,152.801651 525.000000,168.103317 525.000000,183.701935 
	C517.381165,183.701935 509.981049,183.701935 502.179871,183.701935 
	C502.179871,143.706467 502.179871,103.655586 502.179871,63.189407 
	C488.060150,63.189407 474.326172,63.189407 460.298279,63.189407 
	C460.298279,56.381859 460.298279,49.980846 460.298279,43.288250 
	C495.297272,43.288250 530.349304,43.288250 565.701050,43.288250 
	C565.701050,49.616711 565.701050,56.017769 565.701050,62.839016 
	C552.364929,62.839016 538.963867,62.839016 525.000000,62.839016 
	C525.000000,87.667641 525.000000,112.083824 525.000000,137.000000 
z"/>
<path fill="#231F20" opacity="1.000000" stroke="none" 
	d="
M1338.000000,164.000000 
	C1352.137085,164.000000 1365.774292,164.000000 1379.705078,164.000000 
	C1379.705078,170.626007 1379.705078,177.027328 1379.705078,183.715973 
	C1350.688965,183.715973 1321.631348,183.715973 1292.286377,183.715973 
	C1292.286377,137.033005 1292.286377,90.315720 1292.286377,43.298939 
	C1299.617798,43.298939 1307.018555,43.298939 1314.826050,43.298939 
	C1314.826050,83.297600 1314.826050,123.352234 1314.826050,164.000000 
	C1322.642578,164.000000 1330.071289,164.000000 1338.000000,164.000000 
z"/>
<path fill="#231F20" opacity="1.000000" stroke="none" 
	d="
M1062.000000,134.000000 
	C1062.000000,150.803101 1062.000000,167.106216 1062.000000,183.704132 
	C1054.375610,183.704132 1046.974609,183.704132 1039.285156,183.704132 
	C1039.285156,137.029465 1039.285156,90.310974 1039.285156,43.295959 
	C1046.624146,43.295959 1054.025146,43.295959 1062.000000,43.295959 
	C1062.000000,73.333107 1062.000000,103.416557 1062.000000,134.000000 
z"/>
<path fill="#000000" opacity="1.000000" stroke="none" 
	d="
M406.925903,211.732758 
	C406.990021,215.246658 406.990021,218.378738 406.990021,222.057526 
	C408.278168,221.230988 409.166077,220.743088 409.957611,220.130692 
	C410.773712,219.499313 411.495972,218.746674 412.259277,218.047089 
	C412.430298,219.247681 413.005157,220.563599 412.701111,221.628586 
	C411.500214,225.835083 404.543274,229.784958 400.138977,228.982346 
	C393.887695,227.843140 390.664612,223.585434 389.865387,217.998596 
	C388.404480,207.786285 399.924652,201.042603 408.356476,206.996307 
	C410.286987,208.359436 411.306641,211.012543 412.745514,213.071960 
	C412.283356,213.397308 411.821228,213.722656 411.359070,214.047989 
	C409.911316,212.720154 408.467163,211.388275 407.005432,210.076004 
	C406.929413,210.007751 406.703369,210.106567 406.547180,210.127594 
	C406.652069,210.535370 406.756927,210.943161 406.925903,211.732758 
M402.923248,219.473541 
	C401.953491,219.768356 400.775208,219.814499 400.060547,220.413589 
	C398.851288,221.427353 397.935089,222.790680 396.674774,224.265549 
	C399.979675,226.539398 403.398956,227.046280 406.191223,224.124069 
	C404.982178,222.671860 403.988800,221.478714 402.923248,219.473541 
M395.999359,218.992691 
	C395.999359,217.056656 395.999359,215.120605 395.999359,213.184570 
	C393.801025,213.833908 391.698792,215.091766 391.733490,216.287689 
	C391.785187,218.071915 393.343262,219.812500 394.260406,221.571640 
	C394.837006,220.991440 395.413605,220.411240 395.999359,218.992691 
z"/>
<path fill="#FFFFFF" opacity="1.000000" stroke="none" 
	d="
M1564.174438,163.999725 
	C1560.829712,164.467300 1560.976318,162.609833 1560.981201,160.659149 
	C1561.016357,146.353363 1561.000122,132.047424 1561.000122,117.552818 
	C1572.422485,117.552818 1583.789429,117.145218 1595.100952,117.757133 
	C1599.511963,117.995743 1604.175171,119.884476 1608.062256,122.154121 
	C1615.712280,126.621025 1619.003784,139.247238 1615.874268,149.321793 
	C1613.293091,157.631058 1604.554932,163.976837 1595.602783,163.995117 
	C1585.288208,164.016159 1574.973511,163.999985 1564.174438,163.999725 
z"/>
<path fill="#FFFFFF" opacity="1.000000" stroke="none" 
	d="
M1603.816772,91.676086 
	C1599.686157,96.655350 1594.183960,97.706116 1588.661865,97.910423 
	C1579.690918,98.242332 1570.698730,97.999908 1561.357910,97.999908 
	C1561.357910,86.509865 1561.357910,75.115082 1561.357910,62.506104 
	C1572.918213,63.055599 1584.899292,62.477577 1596.410645,64.531624 
	C1605.792725,66.205750 1610.335327,77.244667 1606.333618,87.147797 
	C1605.735962,88.626900 1604.832031,89.982262 1603.816772,91.676086 
z"/>
<path fill="#FFFFFF" opacity="1.000000" stroke="none" 
	d="
M933.020996,136.113831 
	C939.036255,120.162590 945.024536,104.608536 951.036560,89.063637 
	C951.438293,88.024887 952.019531,87.055580 952.948853,85.185532 
	C960.873535,105.343018 968.540283,124.844437 976.366028,144.750214 
	C960.629578,144.750214 945.438660,144.750214 929.854492,144.750214 
	C930.964233,141.843719 931.981934,139.178452 933.020996,136.113831 
z"/>
<path fill="#FFFFFF" opacity="1.000000" stroke="none" 
	d="
M402.959351,219.879562 
	C403.988800,221.478714 404.982178,222.671860 406.191223,224.124069 
	C403.398956,227.046280 399.979675,226.539398 396.674774,224.265549 
	C397.935089,222.790680 398.851288,221.427353 400.060547,220.413589 
	C400.775208,219.814499 401.953491,219.768356 402.959351,219.879562 
z"/>
<path fill="#FFFFFF" opacity="1.000000" stroke="none" 
	d="
M395.994781,219.411865 
	C395.413605,220.411240 394.837006,220.991440 394.260406,221.571655 
	C393.343262,219.812500 391.785187,218.071915 391.733490,216.287689 
	C391.698792,215.091766 393.801025,213.833908 395.999359,213.184570 
	C395.999359,215.120605 395.999359,217.056656 395.994781,219.411865 
z"/>
</svg>